# xmcd
#
# Track frame offsets: 
#        150
#        21677
#        54022
#        66335
#        90782
#        104055
#        125898
#        149976
#        175093
#        193883
#        225267
#        232733
#
# Disc length: 3444 seconds
#
# Revision: 1
# Processed by: cddbd v1.5.2PL0 Copyright (c) Steve Scherf et al.
# Submitted via: ExactAudioCopy v0.90b4
#
DISCID=a80d720c
DTITLE=Julian Arguelles - As above So below
DYEAR=2003
DGENRE=Jazz
TTITLE0=Upward Rush Of Wings
TTITLE1=Since Then
TTITLE2=Happy Crackers
TTITLE3=Such Sweet Madness
TTITLE4=Piece 4D
TTITLE5=Wendreda's Way
TTITLE6=Angelus
TTITLE7=World Without Words
TTITLE8=Peace For Jess
TTITLE9=Lady In Wimple Headddress
TTITLE10=Chuckie Pend
TTITLE11=Bell Metal Lane
EXTD=YEAR: 2003
EXTT0=
EXTT1=
EXTT2=
EXTT3=
EXTT4=
EXTT5=
EXTT6=
EXTT7=
EXTT8=
EXTT9=
EXTT10=
EXTT11=
PLAYORDER=
